<svg xmlns="http://www.w3.org/2000/svg" viewBox="0 0 512 512" width="200">
						<path d="M409.6 366.933c14.933-34.901 11.093-86.869-12.203-116.821a104.51 104.51 0 0 1-21.931-62.379V128C375.467 62.02 321.98 8.533 256 8.533 190.02 8.533 136.533 62.02 136.533 128v62.72a90.998 90.998 0 0 1-19.115 55.723l-5.461 6.997c-21.504 27.648-25.173 82.176-9.557 113.493h307.2z"
						 fill="#fecb66" />
						<path d="M179.2 102.4a184.372 184.372 0 0 1 18.859-78.848C160.094 44.604 136.542 84.591 136.533 128v62.72a90.998 90.998 0 0 1-19.115 55.723l-5.461 6.997c-21.504 27.648-25.173 82.176-9.557 113.493h145.067L204.8 247.467c-11.776-41.131-23.467-85.845-25.6-128.597V102.4z"
						 fill="#f5ad76" />
						<path d="M435.2 512V410.112c.009-34.415-25.591-63.454-59.733-67.755l-61.781-7.68c-8.585-1.084-15.002-8.414-14.933-17.067v-44.544h-85.419v44.629c.068 8.653-6.349 15.983-14.933 17.067l-61.781 7.68c-34.142 4.301-59.742 33.34-59.733 67.755V512H435.2z"
						 fill="#fedac6" />
						<g fill="#441c66">
							<path d="M179.2 337.067l-42.667 5.291c-34.142 4.301-59.742 33.34-59.733 67.755V512h102.4V337.067zM375.467 342.357l-42.667-5.291V512h102.4V410.112c.009-34.415-25.591-63.454-59.733-67.755z"
							/>
						</g>
						<path d="M110.933 351.061A68.27 68.27 0 0 0 76.8 410.112V512h34.133V351.061z" fill="#390863" />
						<path d="M322.56 335.787L256 452.267l-66.56-116.48-10.24 1.28V512h153.6V337.067l-10.24-1.28z" fill="#ebebeb" />
						<path d="M213.333 375.467l-23.893-39.68-10.24 1.28V512h34.133V375.467z" fill="#dbdbdb" />
						<path d="M298.667 307.2v-34.133h-85.333V307.2c25.881 17.075 59.451 17.075 85.333 0z" fill="#f5c4b0" />
						<g fill="#fedac6">
							<path d="M358.4 145.067h-17.067v51.2H358.4c14.14 0 25.6-11.46 25.6-25.6s-11.46-25.6-25.6-25.6z" />
							<path d="M349.867 145.067l-3.499 59.136c-2.842 48.247-42.803 85.922-91.136 85.931-47.701-.034-87.356-36.753-91.051-84.309l-2.048-26.624s85.333-51.2 128-110.933c0-.001 25.6 51.199 59.734 76.799z"
							/>
						</g>
						<path d="M194.048 157.952c-18.688 13.312-31.915 21.248-31.915 21.248l2.048 26.624a90.967 90.967 0 0 0 51.627 75.264 260.717 260.717 0 0 1-21.76-123.136z"
						 fill="#f5c4b0" />
						<circle cx="204.8" cy="162.133" r="17.067" />
						<circle cx="307.2" cy="162.133" r="17.067" />
						<path d="M264.533 213.333h-25.6a8.557 8.557 0 0 1-7.262-4.045 8.538 8.538 0 0 1-.375-8.303l17.067-34.133 15.266 7.637-10.889 21.777h11.793v17.067z"
						/>
						<path d="M255.232 298.667c-51.814-.034-95.539-40.525-99.558-92.177l-2.048-26.633a8.548 8.548 0 0 1 4.113-7.97c.836-.503 84.335-51.021 125.449-108.578a8.468 8.468 0 0 1 7.612-3.55 8.506 8.506 0 0 1 6.963 4.685c.247.495 25.148 49.732 57.225 73.796a8.492 8.492 0 0 1 3.396 7.33l-3.499 59.136c-3.098 52.676-46.874 93.952-99.653 93.961zm-84.19-114.936l1.647 21.436c3.328 42.829 39.586 76.399 82.543 76.433 43.742-.009 80.034-34.227 82.611-77.892l3.234-54.673c-23.689-19.234-42.692-48.777-52.122-65.118-39.073 48.572-100.658 88.985-117.913 99.814z"
						/>
						<path d="M94.635 361.941c-16.794-36.787-12.834-80.23 10.325-113.391l5.726-7.356c11.145-14.362 17.289-32.29 17.314-50.483V128C128 57.421 185.421 0 256 0s128 57.421 128 128v25.6h-17.067V128c0-61.167-49.766-110.933-110.933-110.933S145.067 66.833 145.067 128v62.72c-.017 21.965-7.45 43.605-20.907 60.954l-5.47 7.014c-19.456 27.861-22.818 64.853-8.525 96.171l-15.53 7.082zM417.434 361.788l-15.667-6.784 1.365-3.157c13.696-32 8.926-68.992-12.467-96.503-14.916-19.217-23.339-43.179-23.731-67.482l17.066-.274c.333 20.634 7.484 40.977 20.139 57.284 25.199 32.401 30.814 75.981 14.669 113.724l-1.374 3.192z"
						/>
						<path d="M358.4 204.8h-8.533v-17.067h8.533c9.412 0 17.067-7.654 17.067-17.067 0-9.412-7.654-17.067-17.067-17.067h-8.533v-17.067h8.533c18.825 0 34.133 15.309 34.133 34.133S377.225 204.8 358.4 204.8zM245.444 247.467h-6.511V230.4h6.511c11.17 0 22.357-2.637 32.341-7.637l7.637 15.266c-12.347 6.178-26.171 9.438-39.978 9.438zM256 460.8a8.521 8.521 0 0 1-7.407-4.301l-68.267-119.467 14.814-8.465L256 435.064l60.86-106.496 14.814 8.465L263.407 456.5a8.523 8.523 0 0 1-7.407 4.3z"
						/>
						<path d="M85.333 512H68.267V410.112c-.009-38.622 28.877-71.39 67.2-76.22l61.798-7.68c4.275-.538 7.484-4.207 7.458-8.533V281.6h17.067v36.011c.102 12.919-9.532 23.927-22.4 25.532l-61.79 7.68c-29.807 3.755-52.275 29.244-52.267 59.29V512zM443.733 512h-17.067V410.112c.009-30.046-22.46-55.535-52.267-59.281l-61.764-7.68c-12.885-1.604-22.519-12.621-22.417-25.6V281.6h17.067v36.011c-.034 4.395 3.174 8.064 7.458 8.602l61.773 7.68c38.332 4.821 67.226 37.589 67.217 76.22V512z"
						/>
						<path d="M170.667 332.8h17.067V512h-17.067zM324.267 332.8h17.067V512h-17.067z" />
					</svg>